<svg width="53" height="53" viewBox="0 0 53 53" fill="none" xmlns="http://www.w3.org/2000/svg">
<path d="M18.7363 25.0508C14.4554 25.0508 10.9727 28.5335 10.9727 32.8145C10.9727 35.349 12.1938 37.6033 14.0781 39.0213V45.2363C14.0781 45.7745 14.3567 46.2743 14.8145 46.5574C15.2722 46.84 15.844 46.8659 16.3251 46.6253L18.7363 45.4195L21.1475 46.6253C21.6295 46.8663 22.2013 46.8396 22.6582 46.5574C23.1159 46.2743 23.3945 45.7745 23.3945 45.2363V39.0213C25.2788 37.6033 26.5 35.349 26.5 32.8145C26.5 28.5335 23.0173 25.0508 18.7363 25.0508ZM20.2891 42.724L19.4306 42.2946C18.9935 42.0763 18.4792 42.0763 18.042 42.2946L17.1836 42.724V40.4216C17.6854 40.5239 18.2046 40.5781 18.7363 40.5781C19.2681 40.5781 19.7873 40.5239 20.2891 40.4216V42.724ZM18.7363 37.4727C16.1678 37.4727 14.0781 35.3829 14.0781 32.8145C14.0781 30.246 16.1678 28.1562 18.7363 28.1562C21.3048 28.1562 23.3945 30.246 23.3945 32.8145C23.3945 35.3829 21.3048 37.4727 18.7363 37.4727Z" fill="#00A975"/>
<path d="M6.31445 0C5.45681 0 4.76172 0.695091 4.76172 1.55273V51.4473C4.76172 52.3049 5.45681 53 6.31445 53H34.2637C34.6765 53 35.074 52.833 35.3619 52.5451L47.7834 40.1236C48.0652 39.8418 48.2383 39.4463 48.2383 39.0254V1.55273C48.2383 0.695091 47.5432 0 46.6855 0H6.31445ZM7.86719 3.10547H45.1328V37.4727H34.2637C33.406 37.4727 32.7109 38.1677 32.7109 39.0254V49.8945H7.86719V3.10547ZM42.9367 40.5781L35.8164 47.6985V40.5781H42.9367Z" fill="#1F2026"/>
<path d="M12.5254 15.7344H40.4746C41.3323 15.7344 42.0273 15.0393 42.0273 14.1816V7.76367C42.0273 6.90603 41.3323 6.21094 40.4746 6.21094H12.5254C11.6677 6.21094 10.9727 6.90603 10.9727 7.76367V14.1816C10.9727 15.0393 11.6677 15.7344 12.5254 15.7344ZM14.0781 9.31641H38.9219V12.6289H14.0781V9.31641Z" fill="#00A975"/>
<path d="M12.5254 21.9453H40.4746C41.3323 21.9453 42.0273 21.2502 42.0273 20.3926C42.0273 19.5349 41.3323 18.8398 40.4746 18.8398H12.5254C11.6677 18.8398 10.9727 19.5349 10.9727 20.3926C10.9727 21.2502 11.6677 21.9453 12.5254 21.9453Z" fill="#00A975"/>
<path d="M40.4746 25.0508H31.1582C30.3006 25.0508 29.6055 25.7459 29.6055 26.6035C29.6055 27.4612 30.3006 28.1562 31.1582 28.1562H40.4746C41.3323 28.1562 42.0273 27.4612 42.0273 26.6035C42.0273 25.7459 41.3323 25.0508 40.4746 25.0508Z" fill="#00A975"/>
<path d="M40.4746 34.3672C41.3323 34.3672 42.0273 33.6721 42.0273 32.8145C42.0273 31.9568 41.3323 31.2617 40.4746 31.2617H31.1582C30.3006 31.2617 29.6055 31.9568 29.6055 32.8145C29.6055 33.6721 30.3006 34.3672 31.1582 34.3672H40.4746Z" fill="#00A975"/>
</svg>
