<svg width="56" height="56" viewBox="0 0 56 56" fill="none" xmlns="http://www.w3.org/2000/svg">
<path d="M54.7708 29.5355H52.5953V21.7717C52.5953 15.9623 47.869 11.2358 42.0595 11.2358C40.9655 11.2358 39.9101 11.4038 38.9172 11.7146C35.1882 5.26442 28.3681 1.30029 20.8607 1.30029C9.35822 1.30029 0 10.6585 0 22.1612C0 33.6632 9.35822 43.0208 20.8609 43.0208C23.3725 43.0208 25.8056 42.584 28.1186 41.7229V53.4707C28.1186 54.1496 28.6689 54.6999 29.3478 54.6999H54.7708C55.4497 54.6999 56 54.1496 56 53.4707V30.7647C56 30.0858 55.4497 29.5355 54.7708 29.5355ZM50.137 21.7717V29.5355H48.455V21.7717C48.455 18.2452 45.586 15.3762 42.0595 15.3762C38.5329 15.3762 35.6639 18.2452 35.6639 21.7717V29.5355H33.9819V21.7717C33.9819 17.3177 37.6055 13.6942 42.0595 13.6942C46.5134 13.6942 50.137 17.3177 50.137 21.7717ZM39.0332 19.2563C39.1848 20.213 39.2623 21.1844 39.2623 22.1612C39.2623 24.3745 38.8784 26.5159 38.1224 28.5506V21.7717C38.1222 20.8161 38.4649 19.939 39.0332 19.2563ZM41.2848 17.9115C41.5354 17.8613 41.7943 17.8345 42.0595 17.8345C44.2304 17.8345 45.9967 19.6008 45.9967 21.7717V29.5355H40.3789C41.2689 27.1891 41.7205 24.7169 41.7205 22.1612C41.7205 20.7275 41.5727 19.303 41.2848 17.9115ZM28.1186 30.7647V33.9746C25.9397 35.3178 23.4446 36.0262 20.8609 36.0262C13.2157 36.0262 6.99589 29.8063 6.99589 22.1612C6.99589 14.516 13.2157 8.29619 20.8609 8.29619C26.1349 8.29619 30.9318 11.2885 33.2686 15.9736C32.1671 17.638 31.5236 19.6306 31.5236 21.7717V29.5355H29.3478C28.6689 29.5355 28.1186 30.0858 28.1186 30.7647ZM20.8609 40.5624C10.7137 40.5624 2.45833 32.3076 2.45833 22.1612C2.45833 12.014 10.7137 3.75862 20.8609 3.75862C27.3984 3.75862 33.3466 7.16561 36.6633 12.727C36.0623 13.087 35.4993 13.5038 34.9836 13.9722C32.0877 8.97805 26.724 5.83785 20.8609 5.83785C11.8603 5.83785 4.53756 13.1604 4.53756 22.1612C4.53756 31.1619 11.8602 38.4845 20.8609 38.4845C23.4047 38.4845 25.8759 37.8995 28.1186 36.7832V39.0748C25.827 40.0612 23.3895 40.5624 20.8609 40.5624ZM53.5417 52.2416H30.577V31.9939H53.5417V52.2416Z" fill="#1F2026"/>
<path d="M22.0899 13.5911V12.5866C22.0899 11.9077 21.5396 11.3574 20.8607 11.3574C20.1819 11.3574 19.6316 11.9077 19.6316 12.5866V13.5911C17.586 13.7093 15.9577 15.4103 15.9577 17.485V19.4889C15.9577 21.5636 17.5859 23.2647 19.6316 23.3828V28.2595C18.9439 28.15 18.416 27.5545 18.416 26.8365C18.416 26.1576 17.8657 25.6073 17.1868 25.6073C16.508 25.6073 15.9577 26.1576 15.9577 26.8365C15.9577 28.9112 17.5859 30.6122 19.6316 30.7304V31.7349C19.6316 32.4138 20.1819 32.9641 20.8607 32.9641C21.5396 32.9641 22.0899 32.4138 22.0899 31.7349V30.7304C24.1355 30.6122 25.7638 28.9112 25.7638 26.8365V24.8326C25.7638 22.7579 24.1356 21.0568 22.0899 20.9387V16.0619C22.7776 16.1714 23.3055 16.7669 23.3055 17.4849V18.5981C23.3055 19.277 23.8558 19.8273 24.5347 19.8273C25.2135 19.8273 25.7638 19.277 25.7638 18.5981V17.4849C25.7638 15.4103 24.1355 13.7093 22.0899 13.5911ZM18.416 19.4891V17.4851C18.416 16.7672 18.9439 16.1716 19.6316 16.0622V20.912C18.9439 20.8025 18.416 20.207 18.416 19.4891ZM23.3055 24.8328V26.8368C23.3055 27.5548 22.7777 28.1503 22.0899 28.2597V23.4098C22.7776 23.5193 23.3055 24.1147 23.3055 24.8328Z" fill="#00A975"/>
</svg>
