<svg width="53" height="53" viewBox="0 0 53 53" fill="none" xmlns="http://www.w3.org/2000/svg">
<path d="M47.2894 0H5.71069C4.85317 0 4.15796 0.695211 4.15796 1.55273V30.6578C4.15796 33.6323 5.36205 36.6772 7.7368 39.7079C9.5505 42.0225 12.0598 44.3468 15.1948 46.6161C20.4613 50.4283 25.6472 52.7668 25.8654 52.8644C26.0672 52.9548 26.2836 53 26.4998 53C26.7161 53 26.9325 52.9549 27.1343 52.8644C27.3525 52.7668 32.5384 50.4283 37.805 46.6161C40.9401 44.3467 43.4493 42.0225 45.2631 39.7079C47.6378 36.6773 48.842 33.6324 48.842 30.6578V1.55273C48.8421 0.695211 48.1469 0 47.2894 0ZM45.7367 30.6578C45.7367 35.922 40.4549 40.8578 36.024 44.0716C32.0511 46.9532 28.0221 48.9976 26.4995 49.7317C24.9835 49.0014 20.9842 46.9731 17.0157 44.1006C12.5668 40.8802 7.26343 35.9337 7.26343 30.6579V3.10547H45.7367V30.6578Z" fill="#1F2026"/>
<path d="M28.163 24.1157H24.8368C22.9417 24.1157 21.4 22.574 21.4 20.679C21.4 18.784 22.9418 17.2423 24.8368 17.2423H31.4894C32.3469 17.2423 33.0421 16.5471 33.0421 15.6895C33.0421 14.832 32.3469 14.1368 31.4894 14.1368H28.0527V10.7002C28.0527 9.84267 27.3575 9.14746 26.5 9.14746C25.6424 9.14746 24.9472 9.84267 24.9472 10.7002V14.1368H24.8369C21.2295 14.1368 18.2947 17.0717 18.2947 20.679C18.2947 24.2863 21.2295 27.2212 24.8369 27.2212H28.1631C30.0582 27.2212 31.5999 28.7629 31.5999 30.6578C31.5999 32.553 30.0581 34.0946 28.1631 34.0946H21.5105C20.653 34.0946 19.9578 34.7898 19.9578 35.6474C19.9578 36.5049 20.653 37.2001 21.5105 37.2001H24.9472V40.6367C24.9472 41.4942 25.6424 42.1894 26.5 42.1894C27.3575 42.1894 28.0527 41.4942 28.0527 40.6367V37.2001H28.163C31.7705 37.2001 34.7052 34.2652 34.7052 30.6578C34.7052 27.0504 31.7705 24.1157 28.163 24.1157Z" fill="#00A975"/>
</svg>
